<?xml version="1.0" encoding="UTF-8" standalone="no" ?>
<!DOCTYPE svg PUBLIC "-//W3C//DTD SVG 1.1//EN" "http://www.w3.org/Graphics/SVG/1.1/DTD/svg11.dtd">
<svg xmlns="http://www.w3.org/2000/svg" xmlns:xlink="http://www.w3.org/1999/xlink" version="1.1" width="64" height="64" viewBox="0 0 64 64" xml:space="preserve">
<desc>Created with Fabric.js 3.6.6</desc>
<defs>
</defs>
<g transform="matrix(0.74 0 0 0.74 32.08 32.08)"  >
<circle style="stroke: rgb(200,0,0); stroke-width: 4; stroke-dasharray: ; stroke-linecap: butt; stroke-dashoffset: 0; stroke-linejoin: miter; stroke-miterlimit: 4; fill: rgb(255,0,0); fill-opacity: 0; fill-rule: nonzero; opacity: 1;"  cx="0" cy="0" r="40" />
</g>
<g transform="matrix(1.76 0 0 1.76 31 32.5)"  >
<g style=""   >
		<g transform="matrix(1 0 0 1 -3.53 -5.49)"  >
<path style="stroke: none; stroke-width: 1; stroke-dasharray: none; stroke-linecap: butt; stroke-dashoffset: 0; stroke-linejoin: miter; stroke-miterlimit: 4; fill: rgb(35,31,32); fill-rule: nonzero; opacity: 1;"  transform=" translate(-8.97, -7.01)" d="M 13.5 12 H 5.34 L 13.42 2 a 0.61 0.61 0 0 0 0.08 -0.66 A 0.63 0.63 0 0 0 12.93 1 H 4.5 a 0.5 0.5 0 0 0 0 1 h 7.66 L 4.08 12 a 0.61 0.61 0 0 0 -0.08 0.66 a 0.63 0.63 0 0 0 0.57 0.36 H 13.5 a 0.5 0.5 0 0 0 0 -1 Z" stroke-linecap="round" />
</g>
		<g transform="matrix(1 0 0 1 -2.46 7.5)"  >
<path style="stroke: none; stroke-width: 1; stroke-dasharray: none; stroke-linecap: butt; stroke-dashoffset: 0; stroke-linejoin: miter; stroke-miterlimit: 4; fill: rgb(35,31,32); fill-rule: nonzero; opacity: 1;"  transform=" translate(-10.04, -20)" d="M 13.05 16.35 a 0.62 0.62 0 0 0 -0.56 -0.35 h -5 a 0.5 0.5 0 0 0 0 1 h 4.23 L 7.07 23 a 0.63 0.63 0 0 0 0.5 1 H 12.5 a 0.5 0.5 0 0 0 0 -1 H 8.33 L 13 17 A 0.61 0.61 0 0 0 13.05 16.35 Z" stroke-linecap="round" />
</g>
		<g transform="matrix(1 0 0 1 6.11 1.51)"  >
<path style="stroke: none; stroke-width: 1; stroke-dasharray: none; stroke-linecap: butt; stroke-dashoffset: 0; stroke-linejoin: miter; stroke-miterlimit: 4; fill: rgb(35,31,32); fill-rule: nonzero; opacity: 1;"  transform=" translate(-18.61, -14.01)" d="M 22.41 9.35 A 0.62 0.62 0 0 0 21.85 9 H 15.5 a 0.5 0.5 0 0 0 0 1 h 5.59 l -6.21 8 a 0.63 0.63 0 0 0 -0.07 0.67 a 0.64 0.64 0 0 0 0.57 0.35 H 21.5 a 0.5 0.5 0 0 0 0 -1 H 16.13 l 6.22 -8 A 0.63 0.63 0 0 0 22.41 9.35 Z" stroke-linecap="round" />
</g>
</g>
</g>
<g transform="matrix(1 0 0 1 32.35 31.69)"  >
<line style="stroke: rgb(200,0,0); stroke-width: 3; stroke-dasharray: none; stroke-linecap: butt; stroke-dashoffset: 0; stroke-linejoin: miter; stroke-miterlimit: 4; fill: rgb(0,0,0); fill-rule: nonzero; opacity: 1;"  x1="-20" y1="-20" x2="20" y2="20" />
</g>
</svg>